<svg xmlns="http://www.w3.org/2000/svg" xmlns:xlink="http://www.w3.org/1999/xlink" width="370.643" height="862.361" viewBox="0 0 370.643 862.361">
  <defs>
    <clipPath id="clip-path">
      <path id="Trazado_2" data-name="Trazado 2" d="M53.091,348.574H332.18v457.7H53.091Z"/>
    </clipPath>
    <clipPath id="clip-path-2">
      <path id="Trazado_29" data-name="Trazado 29" d="M50.441,40.16H73.572V69.545H50.441Z"/>
    </clipPath>
    <clipPath id="clip-path-3">
      <path id="Trazado_16" data-name="Trazado 16" d="M50.441,40.16h110.61V180.675H50.441Z"/>
    </clipPath>
    <clipPath id="clip-path-4">
      <path id="Trazado_20" data-name="Trazado 20" d="M124.159,276.665h18.222V293.01H124.159Z"/>
    </clipPath>
    <clipPath id="clip-path-5">
      <path id="Trazado_24" data-name="Trazado 24" d="M170.917,38.835h29.818V64.26H170.917Z"/>
    </clipPath>
  </defs>
  <g id="icecream-2221064" transform="translate(-2.359 56.086)">
    <g id="cone">
      <g id="Grupo_1" data-name="Grupo 1" opacity="0.68" clip-path="url(#clip-path)">
        <path id="Trazado_1" data-name="Trazado 1" d="M53.09,348.575l141.6,457.7,137.488-453.16Z" fill="#f8ad48"/>
      </g>
      <path id="Trazado_3" data-name="Trazado 3" d="M181.456,760.868l20.7,19.071-6.625,26.335Z" fill="#f8ad48"/>
      <path id="Trazado_4" data-name="Trazado 4" d="M174.555,742.705l54.659-49.947,18.219-63.57L164.617,708.2Z" fill="#f8ad48"/>
      <path id="Trazado_5" data-name="Trazado 5" d="M146.6,650.075,280.7,521.12l21.391-67.2L135.907,615.566Z" fill="#f8ad48"/>
      <path id="Trazado_6" data-name="Trazado 6" d="M117.687,556.538l202.9-197.065-55.487-.909-159.836,156.2Z" fill="#f8ad48"/>
      <path id="Trazado_7" data-name="Trazado 7" d="M152.47,349.483,78.763,429.4l9.11,32.692,111.8-108.068Z" fill="#f8ad48"/>
      <path id="Trazado_8" data-name="Trazado 8" d="M126.8,583.782,231.974,681.86,220.38,720.91l-73.707-70.834Z" fill="#f8ad48"/>
      <path id="Trazado_9" data-name="Trazado 9" d="M73.794,414.869,259.3,591.955l-10.767,37.234L92.014,473.9Z" fill="#f8ad48"/>
      <path id="Trazado_10" data-name="Trazado 10" d="M289.118,495.693l-11.6,37.233L82.9,347.667h57.144Z" fill="#f8ad48"/>
      <path id="Trazado_11" data-name="Trazado 11" d="M220.38,350.391l86.129,87.181L318.1,401.246l-49.69-52.672Z" fill="#f8ad48"/>
    </g>
    <g id="strawberry">
      <g id="Grupo_5" data-name="Grupo 5">
        <path id="Trazado_12" data-name="Trazado 12" d="M345.043,339.024a127.489,127.489,0,0,0,6.741-40.959c0-77.643-69.72-140.593-155.749-140.593S40.3,220.422,40.3,298.065a127.514,127.514,0,0,0,6.737,40.959c-16.424,6.221-27.959,20.873-27.959,37.961,0,22.735,20.408,41.156,45.595,41.156,20.561,0,37.958-12.3,43.622-29.191,5.692,16.894,23.061,29.191,43.646,29.191,21.233,0,39.044-13.131,44.1-30.894,5.069,17.763,22.875,30.894,44.1,30.894,20.6,0,37.966-12.3,43.654-29.2,5.664,16.907,23.029,29.2,43.618,29.2C352.6,418.141,373,399.72,373,376.985c0-17.088-11.539-31.729-27.959-37.961" fill="#ee569e"/>
        <path id="Trazado_13" data-name="Trazado 13" d="M337.463,251.963a127.647,127.647,0,0,0,2.388-41.44C331.7,132.216,256.113,70.1,171,71.8,85.873,73.5,23.488,138.355,31.615,216.656A138.257,138.257,0,0,0,42.581,257.83c-15.6,6.6-25.477,21.6-23.687,38.834C21.276,319.6,43.4,337.772,68.326,337.269c20.366-.4,36.273-13.143,40.1-30.3,7.406,16.927,25.882,28.987,46.237,28.579,21.026-.417,37.271-14.011,40.413-32.027,6.872,17.815,25.858,30.716,46.874,30.288,20.391-.4,36.278-13.145,40.138-30.3,7.376,16.932,25.848,28.994,46.215,28.589,24.913-.5,43.168-19.478,40.8-42.4-1.79-17.238-14.734-31.771-31.641-37.731" fill="#f181b2"/>
        <path id="Trazado_14" data-name="Trazado 14" d="M331.28,181.185a136.88,136.88,0,0,0,8.383-42.021c3.02-79.1-64.55-140.241-150.962-136.529S29.817,73.476,26.781,152.585a127.446,127.446,0,0,0,5.18,41.44c-16.742,7.042-28.907,22.467-29.574,39.881-.882,23.165,18.9,41.057,44.2,39.964,20.659-.885,38.593-14.162,44.951-31.621C96.6,259.219,113.561,271,134.23,270.114c21.345-.915,39.739-15.064,45.51-33.378,4.389,17.876,21.762,30.489,43.1,29.576,20.671-.888,38.6-14.169,44.961-31.634,5.043,16.985,22,28.762,42.684,27.874,25.293-1.086,46.505-20.733,47.4-43.9.663-17.413-10.348-31.83-26.61-37.472" fill="#f6b9d3"/>
        <path id="Trazado_25" data-name="Trazado 25" d="M35.26,110.316c16.038,0,20.1,14.388,38.59,15.01,15.624,0,29.057-14.911,42.82-14.908,11.879,0,18.023,14.908,37.058,14.908,20.056-.042,24.218-14.908,44.831-14.908,17.431,0,18.533,17.92,37.759,18.1,14.651.536,21.137-18.11,33.692-18.1,12.892,0,22.137,18.1,41.14,18.1,18.378,0,20.73-19.132,25.689-19.1.446.015.5-.086.5-.086s-7.718-49.529-49.318-77.3S232.889,2.833,195.791,2.7s-53.318,4.842-96.422,28.8S35.26,110.316,35.26,110.316Z" fill="#642a2a"/>
        <g id="Grupo_8" data-name="Grupo 8">
          <g id="Grupo_6" data-name="Grupo 6" transform="translate(-132.641 -17.342)">
            <path id="Trazado_26" data-name="Trazado 26" d="M36.762,0A36.768,36.768,0,0,1,51.81,70.313c-4.364,2.011-2.3,1.166-14.719,1.423-11.73.136-10.626.675-15.509-1.483A36.768,36.768,0,0,1,36.762,0Z" transform="translate(290.367 -24.408)" fill="#d02f2f"/>
            <path id="Trazado_27" data-name="Trazado 27" d="M47.791,33.086s-.061-.9-1.609-3.14a77.786,77.786,0,0,0-17.813-18c-12.5-8.828-9.639-6.818-12.288-8.164A66.023,66.023,0,0,0,6.719,0,9.471,9.471,0,0,0,2.508,0" transform="translate(277.5 -38.5)" fill="#2f7931"/>
          </g>
          <g id="Grupo_7" data-name="Grupo 7" transform="translate(110.728 -69.87)" opacity="0.27" clip-path="url(#clip-path-2)">
            <path id="Trazado_28" data-name="Trazado 28" d="M62.09,42.253c-1.424.545,1.766-.854-3.691,1.735-2.724,3.593-5.582,5.8-6.667,18.891,0,0,2.14.57,5.258-2.469,0,0,3.912-16.422,13.612-16.422,0,0,.615-2.939-5.621-2.179" transform="translate(0 0.002)" fill="#fefefe"/>
          </g>
        </g>
        <path id="Trazado_30" data-name="Trazado 30" d="M231.249,33.451V24.83L214.108,26.1s-1.557-2.139-6.361-2.46S201.7,25.712,197.3,26.1s-3.389-.956-7.379-1.275-3.821,1.757-8.515,1.757c-1.7,0-2.856-.9-4.6-1.264a14.1,14.1,0,0,0-4.669,0l-9-.494-6.331,8.621Z" fill="#642a2a"/>
        <g id="Grupo_2" data-name="Grupo 2" opacity="0.27" clip-path="url(#clip-path-3)">
          <path id="Trazado_15" data-name="Trazado 15" d="M143.209,40.513S60.344,57.3,50.441,176.754c0,0,6.626,10.9,21.535-3.633,0,0,38.1-110.809,84.486-110.809,0,0,16.566-25.432-13.253-21.8" fill="#fefefe"/>
        </g>
        <path id="Trazado_17" data-name="Trazado 17" d="M274.079,372.032c0,7.524-5.191,13.624-11.6,13.624s-11.6-6.1-11.6-13.624,5.192-13.624,11.6-13.624,11.6,6.1,11.6,13.624" fill="#f181b2"/>
        <path id="Trazado_18" data-name="Trazado 18" d="M95.169,298.462c0,6.019-4.079,10.9-9.111,10.9s-9.112-4.88-9.112-10.9,4.08-10.9,9.112-10.9,9.111,4.879,9.111,10.9" fill="#f181b2"/>
        <g id="Grupo_3" data-name="Grupo 3" opacity="0.4" clip-path="url(#clip-path-4)">
          <path id="Trazado_19" data-name="Trazado 19" d="M142.381,284.838c0,4.514-4.079,8.174-9.111,8.174s-9.111-3.66-9.111-8.174,4.079-8.175,9.111-8.175,9.111,3.66,9.111,8.175" fill="#f181b2"/>
        </g>
        <path id="Trazado_21" data-name="Trazado 21" d="M74.558,370.215l-.387,3.61c-.426,3.968-3.736,6.833-7.355,6.366L52.008,378.28c-3.619-.467-6.232-4.1-5.806-8.065l.387-3.609c.426-3.969,3.736-6.834,7.355-6.367l14.808,1.911c3.62.467,6.232,4.1,5.806,8.065" fill="#f181b2"/>
        <path id="Trazado_22" data-name="Trazado 22" d="M162.527,360.224h-2.19a10.532,10.532,0,0,1-10.5-10.5v-4.43a10.532,10.532,0,0,1,10.5-10.5h2.19a10.533,10.533,0,0,1,10.5,10.5v4.43a10.533,10.533,0,0,1-10.5,10.5" fill="#f181b2"/>
        <g id="Grupo_4" data-name="Grupo 4" opacity="0.27" clip-path="url(#clip-path-5)">
          <path id="Trazado_23" data-name="Trazado 23" d="M194.733,64.262H176.917a6.018,6.018,0,0,1-6-6V44.833a6.018,6.018,0,0,1,6-6h17.816a6.018,6.018,0,0,1,6,6V58.262a6.018,6.018,0,0,1-6,6" fill="#fefefe"/>
        </g>
      </g>
    </g>
  </g>
</svg>
