<svg xmlns="http://www.w3.org/2000/svg" xmlns:xlink="http://www.w3.org/1999/xlink" width="793.064" height="793.825" viewBox="0 0 793.064 793.825">
  <defs>
    <clipPath id="clip-path">
      <path id="Trazado_29" data-name="Trazado 29" d="M50.441,40.16H73.572V69.545H50.441Z"/>
    </clipPath>
    <clipPath id="clip-path-2">
      <path id="Trazado_35" data-name="Trazado 35" d="M50.441,40.16h76.9v97.694h-76.9Z"/>
    </clipPath>
  </defs>
  <g id="summer_vacation_ice_cream_wafer_bowl_food_icon_133397" transform="translate(-8.007 -7.768)">
    <path id="Trazado_38" data-name="Trazado 38" d="M136.315,0A136.315,136.315,0,1,1,0,136.315,136.315,136.315,0,0,1,136.315,0Z" transform="translate(57.555 380.256)" fill="#ee569e"/>
    <rect id="Rect치ngulo_1" data-name="Rect치ngulo 1" width="49.569" height="518.183" transform="translate(480.517 7.768) rotate(15.31)" fill="#ffd54f"/>
    <rect id="Rect치ngulo_2" data-name="Rect치ngulo 2" width="49.569" height="518.183" transform="matrix(0.997, -0.08, 0.08, 0.997, 288.079, 38.256)" fill="#ffd54f"/>
    <circle id="Elipse_2" data-name="Elipse 2" cx="136.315" cy="136.315" r="136.315" transform="translate(183.555 252.256)" fill="#642a2a"/>
    <path id="Trazado_31" data-name="Trazado 31" d="M615.358,351.831c-12.825-140.373-130.541-247.825-271.5-247.825S85.185,211.458,72.36,351.832Z" transform="translate(135.018 201.916)" fill="#fff176"/>
    <g id="Grupo_11" data-name="Grupo 11" transform="translate(293.519 308.675)">
      <g id="Grupo_6" data-name="Grupo 6" transform="translate(-132.641 -17.342)">
        <path id="Trazado_26" data-name="Trazado 26" d="M36.762,0A36.768,36.768,0,0,1,51.81,70.313c-4.364,2.011-2.3,1.166-14.719,1.423-11.73.136-10.626.675-15.509-1.483A36.768,36.768,0,0,1,36.762,0Z" transform="translate(290.367 -24.408)" fill="#d02f2f"/>
        <path id="Trazado_27" data-name="Trazado 27" d="M47.791,33.086s-.061-.9-1.609-3.14a77.786,77.786,0,0,0-17.813-18c-12.5-8.828-9.639-6.818-12.288-8.164A66.023,66.023,0,0,0,6.719,0,9.471,9.471,0,0,0,2.508,0" transform="translate(277.5 -38.5)" fill="#2f7931"/>
      </g>
      <g id="Grupo_7" data-name="Grupo 7" transform="translate(110.728 -69.87)" opacity="0.27" clip-path="url(#clip-path)">
        <path id="Trazado_28" data-name="Trazado 28" d="M62.09,42.253c-1.424.545,1.766-.854-3.691,1.735-2.724,3.593-5.582,5.8-6.667,18.891,0,0,2.14.57,5.258-2.469,0,0,3.912-16.422,13.612-16.422,0,0,.615-2.939-5.621-2.179" transform="translate(0 0.002)" fill="#fefefe"/>
      </g>
    </g>
    <path id="Trazado_39" data-name="Trazado 39" d="M231.249,33.451V24.83L214.108,26.1s-1.557-2.139-6.361-2.46S201.7,25.712,197.3,26.1s-3.389-.956-7.379-1.275-3.821,1.757-8.515,1.757c-1.7,0-2.856-.9-4.6-1.264a14.1,14.1,0,0,0-4.669,0l-9-.494-6.331,8.621Z" transform="translate(293.519 306.675)" fill="#fff176"/>
    <g id="Grupo_10" data-name="Grupo 10" transform="translate(156.519 242.496)" opacity="0.27" clip-path="url(#clip-path-2)">
      <path id="Trazado_34" data-name="Trazado 34" d="M114.938,40.4s-57.612,11.671-64.5,94.722c0,0,4.607,7.578,14.972-2.526,0,0,26.491-77.04,58.739-77.04,0,0,11.518-17.682-9.214-15.156" transform="translate(0 0.001)" fill="#fefefe"/>
    </g>
    <path id="Trazado_32" data-name="Trazado 32" d="M80,248H426.983v34.079a15.49,15.49,0,0,1-15.49,15.49h-316A15.49,15.49,0,0,1,80,282.079Z" transform="translate(151.047 504.024)" fill="#efefef"/>
    <path id="Trazado_33" data-name="Trazado 33" d="M25.149,184c-12.392,0-20.881,11.835-15.49,22.058C80.047,339.585,230.4,431.845,404.538,431.845s324.492-92.26,394.879-225.787c5.391-10.224-3.1-22.058-15.49-22.058Z" transform="translate(0 369.747)" fill="#efefef"/>
    <path id="Trazado_36" data-name="Trazado 36" d="M82.862,495.9s3.623-21.408,17.481-38.361,33.892-24.542,33.892-24.542,4.507-.712,6.722,1.2,1.19,6.071,1.19,6.071-19.156,12.572-30.007,27.523-13.4,32.282-13.4,32.282-4.709,4.277-9.846,4.277S82.862,495.9,82.862,495.9Z" transform="translate(-9 -11)" fill="rgba(254,254,254,0.45)"/>
    <circle id="Elipse_3" data-name="Elipse 3" cx="4" cy="4" r="4" transform="translate(135.878 416.15)" fill="rgba(255,255,255,0.45)"/>
    <path id="Trazado_37" data-name="Trazado 37" d="M82.862,518.75S90,489.58,117.325,466.48s66.818-33.44,66.818-33.44,8.885-.97,13.252,1.633,2.345,8.273,2.345,8.273-37.765,17.13-59.157,37.5-26.411,43.987-26.411,43.987-9.284,5.827-19.411,5.827S82.862,518.75,82.862,518.75Z" transform="translate(188 -77.389)" fill="rgba(254,254,254,0.45)"/>
  </g>
</svg>
