<svg width="25" height="25" viewBox="0 0 25 25" fill="none" xmlns="http://www.w3.org/2000/svg">
<path d="M4.61211 8.62715L1.90303 11.3362C1.4043 11.835 1.4043 12.6436 1.90303 13.1423L4.61211 15.8514C5.11084 16.3501 5.91944 16.3501 6.41816 15.8514L9.12725 13.1423C9.62597 12.6436 9.62597 11.835 9.12725 11.3362L6.41816 8.62715C5.91944 8.12842 5.11084 8.12842 4.61211 8.62715Z" stroke="#333" stroke-width="1.5" stroke-linecap="round" stroke-linejoin="round"/>
<path d="M11.8362 1.40352L9.12715 4.1126C8.62842 4.61133 8.62842 5.41992 9.12715 5.91865L11.8362 8.62773C12.335 9.12646 13.1436 9.12646 13.6423 8.62773L16.3514 5.91865C16.8501 5.41992 16.8501 4.61133 16.3514 4.1126L13.6423 1.40351C13.1436 0.904787 12.335 0.904787 11.8362 1.40352Z" stroke="#333" stroke-width="1.5" stroke-linecap="round" stroke-linejoin="round"/>
<path d="M19.0608 8.62715L16.3518 11.3362C15.853 11.835 15.853 12.6436 16.3518 13.1423L19.0608 15.8514C19.5596 16.3501 20.3682 16.3501 20.8669 15.8514L23.576 13.1423C24.0747 12.6436 24.0747 11.835 23.576 11.3362L20.8669 8.62715C20.3682 8.12842 19.5596 8.12842 19.0608 8.62715Z" stroke="#333" stroke-width="1.5" stroke-linecap="round" stroke-linejoin="round"/>
<path d="M13.5323 22.7926L13.1969 22.4572C12.9444 22.2047 12.5351 22.2047 12.2826 22.4572L11.9472 22.7926C11.6947 23.0451 11.6947 23.4544 11.9472 23.7069L12.2826 24.0423C12.5351 24.2948 12.9444 24.2948 13.1969 24.0423L13.5323 23.7069C13.7848 23.4544 13.7848 23.0451 13.5323 22.7926Z" fill="#333"/>
<path d="M13.5323 15.2945L13.1969 14.9591C12.9444 14.7066 12.5351 14.7066 12.2826 14.9591L11.9472 15.2945C11.6947 15.547 11.6947 15.9564 11.9472 16.2089L12.2826 16.5443C12.5351 16.7967 12.9444 16.7967 13.1969 16.5443L13.5323 16.2088C13.7848 15.9564 13.7848 15.547 13.5323 15.2945Z" fill="#333"/>
<path d="M13.5323 17.7945L13.1969 17.4591C12.9444 17.2066 12.5351 17.2066 12.2826 17.4591L11.9472 17.7945C11.6947 18.047 11.6947 18.4564 11.9472 18.7089L12.2826 19.0443C12.5351 19.2967 12.9444 19.2967 13.1969 19.0443L13.5323 18.7089C13.7848 18.4564 13.7848 18.047 13.5323 17.7945Z" fill="#333"/>
<path d="M11.0328 17.7945L10.6974 17.4591C10.4449 17.2066 10.0356 17.2066 9.78307 17.4591L9.44767 17.7945C9.19518 18.047 9.19518 18.4564 9.44767 18.7089L9.78307 19.0443C10.0356 19.2967 10.4449 19.2967 10.6974 19.0443L11.0328 18.7088C11.2853 18.4564 11.2853 18.047 11.0328 17.7945Z" fill="#333"/>
<path d="M11.0328 20.2916L10.6974 19.9562C10.4449 19.7037 10.0356 19.7037 9.78307 19.9562L9.44767 20.2916C9.19518 20.5441 9.19518 20.9534 9.44767 21.2059L9.78307 21.5413C10.0356 21.7938 10.4449 21.7938 10.6974 21.5413L11.0328 21.2059C11.2853 20.9534 11.2853 20.5441 11.0328 20.2916Z" fill="#333"/>
<path d="M13.5323 20.2916L13.1969 19.9562C12.9444 19.7037 12.5351 19.7037 12.2826 19.9562L11.9472 20.2916C11.6947 20.5441 11.6947 20.9534 11.9472 21.2059L12.2826 21.5413C12.5351 21.7938 12.9444 21.7938 13.1969 21.5413L13.5323 21.2059C13.7848 20.9534 13.7848 20.5441 13.5323 20.2916Z" fill="#333"/>
<path d="M16.0318 17.7945L15.6964 17.4591C15.4439 17.2066 15.0346 17.2066 14.7821 17.4591L14.4467 17.7945C14.1942 18.047 14.1942 18.4564 14.4467 18.7088L14.7821 19.0443C15.0346 19.2967 15.4439 19.2967 15.6964 19.0443L16.0318 18.7089C16.2843 18.4564 16.2843 18.047 16.0318 17.7945Z" fill="#333"/>
<path d="M16.0318 20.2916L15.6964 19.9562C15.4439 19.7037 15.0346 19.7037 14.7821 19.9562L14.4467 20.2916C14.1942 20.5441 14.1942 20.9534 14.4467 21.2059L14.7821 21.5413C15.0346 21.7938 15.4439 21.7938 15.6964 21.5413L16.0318 21.2059C16.2843 20.9534 16.2843 20.5441 16.0318 20.2916Z" fill="#333"/>
</svg>
