<svg width="50" height="100" viewBox="0 0 50 100" fill="none" xmlns="http://www.w3.org/2000/svg">
<g opacity="0.5" clip-path="url(#clip0_420_182)">
<path d="M44.8864 0H5.11364C1.97565 0 -0.568182 2.54384 -0.568182 5.68182V93.75C-0.568182 96.888 1.97565 99.4318 5.11364 99.4318H44.8864C48.0243 99.4318 50.5682 96.888 50.5682 93.75V5.68182C50.5682 2.54384 48.0243 0 44.8864 0Z" fill="white"/>
<path d="M7.95455 71.0227C9.52354 71.0227 10.7955 69.7508 10.7955 68.1818C10.7955 66.6128 9.52354 65.3409 7.95455 65.3409C6.38555 65.3409 5.11364 66.6128 5.11364 68.1818C5.11364 69.7508 6.38555 71.0227 7.95455 71.0227Z" fill="#D9D9D9"/>
<path d="M19.3182 71.0227C20.8872 71.0227 22.1591 69.7508 22.1591 68.1818C22.1591 66.6128 20.8872 65.3409 19.3182 65.3409C17.7492 65.3409 16.4773 66.6128 16.4773 68.1818C16.4773 69.7508 17.7492 71.0227 19.3182 71.0227Z" fill="#D9D9D9"/>
<path d="M41.7614 87.5H8.23864C6.51275 87.5 5.11364 88.8991 5.11364 90.625C5.11364 92.3509 6.51275 93.75 8.23864 93.75H41.7614C43.4873 93.75 44.8864 92.3509 44.8864 90.625C44.8864 88.8991 43.4873 87.5 41.7614 87.5Z" fill="#0CE497"/>
<path d="M-0.568182 5.68182C-0.568182 2.54384 1.97565 0 5.11364 0H44.8864C48.0243 0 50.5682 2.54384 50.5682 5.68182V50H-0.568182V5.68182Z" fill="#F1F1F1"/>
<path d="M42.0455 14.7727H7.95455C6.38555 14.7727 5.11364 16.0446 5.11364 17.6136V23.8636C5.11364 25.4326 6.38555 26.7045 7.95455 26.7045H42.0455C43.6144 26.7045 44.8864 25.4326 44.8864 23.8636V17.6136C44.8864 16.0446 43.6144 14.7727 42.0455 14.7727Z" fill="#D9D9D9"/>
<path d="M27.8409 51.7045H7.95454C6.38555 51.7045 5.11364 52.9765 5.11364 54.5455V56.25C5.11364 57.819 6.38555 59.0909 7.95454 59.0909H27.8409C29.4099 59.0909 30.6818 57.819 30.6818 56.25V54.5455C30.6818 52.9765 29.4099 51.7045 27.8409 51.7045Z" fill="#36F2AE"/>
<path d="M35.2273 31.8182H14.7727C14.1451 31.8182 13.6364 32.3269 13.6364 32.9545C13.6364 33.5821 14.1451 34.0909 14.7727 34.0909H35.2273C35.8549 34.0909 36.3636 33.5821 36.3636 32.9545C36.3636 32.3269 35.8549 31.8182 35.2273 31.8182Z" fill="#D9D9D9"/>
</g>
<g opacity="0.5" clip-path="url(#clip1_420_182)">
<path d="M44.3182 0H4.54548C1.4075 0 -1.13634 2.54384 -1.13634 5.68182V93.75C-1.13634 96.888 1.4075 99.4318 4.54548 99.4318H44.3182C47.4562 99.4318 50 96.888 50 93.75V5.68182C50 2.54384 47.4562 0 44.3182 0Z" fill="#181725"/>
<path d="M30.1137 71.0227C31.6827 71.0227 32.9546 69.7508 32.9546 68.1818C32.9546 66.6128 31.6827 65.3409 30.1137 65.3409C28.5447 65.3409 27.2728 66.6128 27.2728 68.1818C27.2728 69.7508 28.5447 71.0227 30.1137 71.0227Z" fill="#ADADAD"/>
<path d="M41.4773 71.0227C43.0463 71.0227 44.3182 69.7508 44.3182 68.1818C44.3182 66.6128 43.0463 65.3409 41.4773 65.3409C39.9083 65.3409 38.6364 66.6128 38.6364 68.1818C38.6364 69.7508 39.9083 71.0227 41.4773 71.0227Z" fill="#ADADAD"/>
<path d="M41.1932 87.5H7.67048C5.94459 87.5 4.54548 88.8991 4.54548 90.625C4.54548 92.3509 5.94459 93.75 7.67048 93.75H41.1932C42.9191 93.75 44.3182 92.3509 44.3182 90.625C44.3182 88.8991 42.9191 87.5 41.1932 87.5Z" fill="#0CE497"/>
<path d="M-1.13634 5.68182C-1.13634 2.54384 1.40752 0 4.54548 0H44.3182C47.4562 0 50 2.54384 50 5.68182V50H-1.13634V5.68182Z" fill="#242439"/>
<path d="M41.4773 14.7727H7.38639C5.8174 14.7727 4.54548 16.0446 4.54548 17.6136V23.8636C4.54548 25.4326 5.8174 26.7045 7.38639 26.7045H41.4773C43.0463 26.7045 44.3182 25.4326 44.3182 23.8636V17.6136C44.3182 16.0446 43.0463 14.7727 41.4773 14.7727Z" fill="#D9D9D9"/>
<path d="M27.2727 51.7045H7.38639C5.8174 51.7045 4.54548 52.9765 4.54548 54.5455V56.25C4.54548 57.819 5.8174 59.0909 7.38639 59.0909H27.2727C28.8417 59.0909 30.1137 57.819 30.1137 56.25V54.5455C30.1137 52.9765 28.8417 51.7045 27.2727 51.7045Z" fill="#36F2AE"/>
<path d="M34.6591 31.8182H14.2046C13.577 31.8182 13.0682 32.3269 13.0682 32.9545C13.0682 33.5821 13.577 34.0909 14.2046 34.0909H34.6591C35.2867 34.0909 35.7955 33.5821 35.7955 32.9545C35.7955 32.3269 35.2867 31.8182 34.6591 31.8182Z" fill="#D9D9D9"/>
</g>
<path d="M34.4195 42.7318C33.9567 37.7956 30.2066 33.3221 25.0097 33.3221C19.8128 33.3221 15.5999 37.535 15.5999 42.7318" stroke="#242439" stroke-width="2"/>
<path d="M40.9233 38.1857L35.7503 39.3838" stroke="#242439" stroke-width="2"/>
<path d="M36.5609 30.8902L32.1025 34.1327" stroke="#242439" stroke-width="2"/>
<line x1="14.6226" y1="44.4757" x2="35.2933" y2="44.4757" stroke="#242439" stroke-width="2"/>
<path d="M9 38.9964L14.173 40.1944" stroke="#242439" stroke-width="2"/>
<path d="M25.2122 31.2955V24" stroke="#242439" stroke-width="2"/>
<path d="M12.6478 30.8902L17.1061 34.1327" stroke="#242439" stroke-width="2"/>
<path d="M19.1758 47.2969H30.8994" stroke="#242439" stroke-width="2"/>
<defs>
<clipPath id="clip0_420_182">
<rect width="25" height="99.4318" fill="white"/>
</clipPath>
<clipPath id="clip1_420_182">
<rect width="25" height="99.4318" fill="white" transform="translate(25)"/>
</clipPath>
</defs>
</svg>
