<svg id="mc_symbol" xmlns="http://www.w3.org/2000/svg" width="18.016" height="11.916" viewBox="0 0 18.016 11.916">
  <g id="Grupo_1" data-name="Grupo 1" opacity="0">
    <rect id="Rect치ngulo_1" data-name="Rect치ngulo 1" width="18.016" height="11.916" fill="#fff"/>
  </g>
  <rect id="Rect치ngulo_2" data-name="Rect치ngulo 2" width="4.753" height="7.762" transform="translate(6.632 2.076)" fill="#ff5f00"/>
  <path id="Trazado_1" data-name="Trazado 1" d="M13.546,12.39a4.928,4.928,0,0,1,1.885-3.88,4.936,4.936,0,1,0,0,7.762,4.928,4.928,0,0,1-1.885-3.882Z" transform="translate(-6.424 -6.432)" fill="#eb001b"/>
  <path id="Trazado_2" data-name="Trazado 2" d="M119.9,64.552v-.159h.069V64.36h-.163v.033h.064v.159Zm.317,0V64.36h-.049l-.058.137-.058-.137h-.049v.192h.036v-.145l.053.125h.037l.053-.125v.145Z" transform="translate(-103.382 -55.535)" fill="#f79e1b"/>
  <path id="Trazado_3" data-name="Trazado 3" d="M73.677,12.378a4.936,4.936,0,0,1-7.987,3.88,4.936,4.936,0,0,0,0-7.762,4.936,4.936,0,0,1,7.987,3.88Z" transform="translate(-56.683 -6.42)" fill="#f79e1b"/>
</svg>
