<svg xmlns="http://www.w3.org/2000/svg" width="30.899" height="10" viewBox="0 0 30.899 10">
  <g id="g4158" transform="translate(-81.166 -105.048)">
    <path id="polygon9" d="M436.312,120.369h-2.805l1.755-9.642h2.8Z" transform="translate(-341.654 -5.483)" fill="#00579f"/>
    <path id="path11" d="M573.593,105.46a7.65,7.65,0,0,0-2.516-.412c-2.77,0-4.721,1.318-4.733,3.2-.023,1.39,1.4,2.163,2.458,2.626,1.085.474,1.454.783,1.454,1.205-.011.649-.877.947-1.685.947a6.15,6.15,0,0,1-2.632-.515l-.369-.155-.393,2.173a9.447,9.447,0,0,0,3.128.515c2.943,0,4.859-1.3,4.882-3.306.011-1.1-.738-1.946-2.355-2.636-.981-.443-1.582-.742-1.582-1.195.011-.412.508-.834,1.616-.834a5.26,5.26,0,0,1,2.089.371l.254.1.381-2.09Z" transform="translate(-469.638)" fill="#00579f"/>
    <path id="path13" d="M794.862,116.953c.231-.554,1.12-2.7,1.12-2.7-.012.021.231-.564.369-.923l.2.831s.531,2.308.647,2.79Zm3.463-6.226h-2.17a1.408,1.408,0,0,0-1.466.8l-4.167,8.842h2.943l.589-1.446h3.6c.081.339.335,1.446.335,1.446h2.6l-2.263-9.642Z" transform="translate(-688.523 -5.483)" fill="#00579f"/>
    <path id="path15" d="M172.761,110.727l-2.747,6.574-.3-1.333a7.685,7.685,0,0,0-3.878-4.041l2.516,8.43h2.966l4.409-9.63Z" transform="translate(-81.738 -5.483)" fill="#00579f"/>
    <path id="path17" d="M85.725,110.727H81.212l-.046.219a9.386,9.386,0,0,1,6.81,5.679l-.981-4.986a1.161,1.161,0,0,0-1.27-.912Z" transform="translate(0 -5.483)" fill="#faa61a"/>
  </g>
</svg>
